<svg width="20" height="21" viewBox="0 0 20 21" fill="none" xmlns="http://www.w3.org/2000/svg">
<g id="book">
<path id="Vector" d="M9.99935 19.0034C9.74935 19.0034 9.49935 18.9451 9.29102 18.8284C7.73268 17.9784 4.99102 17.0784 3.27435 16.8534L3.03268 16.8201C1.94102 16.6868 1.04102 15.6618 1.04102 14.5534V4.48677C1.04102 3.82844 1.29935 3.22844 1.77435 2.79511C2.24935 2.36177 2.86602 2.15344 3.51602 2.21177C5.34935 2.35344 8.11602 3.27011 9.68268 4.25344L9.88268 4.37011C9.94102 4.40344 10.066 4.40344 10.116 4.37844L10.2493 4.29511C11.816 3.31177 14.5827 2.37844 16.4243 2.22011C16.441 2.22011 16.5077 2.22011 16.5243 2.22011C17.1327 2.16177 17.7577 2.37844 18.2243 2.81177C18.6993 3.24511 18.9577 3.84511 18.9577 4.50344V14.5618C18.9577 15.6784 18.0577 16.6951 16.9577 16.8284L16.6827 16.8618C14.966 17.0868 12.216 17.9951 10.691 18.8368C10.491 18.9534 10.2493 19.0034 9.99935 19.0034ZM3.31602 3.45344C3.04935 3.45344 2.80768 3.54511 2.61602 3.72011C2.40768 3.91177 2.29102 4.18677 2.29102 4.48677V14.5534C2.29102 15.0451 2.71602 15.5201 3.19102 15.5868L3.44102 15.6201C5.31602 15.8701 8.19102 16.8118 9.85768 17.7201C9.93268 17.7534 10.041 17.7618 10.0827 17.7451C11.7493 16.8201 14.641 15.8701 16.5243 15.6201L16.8077 15.5868C17.2827 15.5284 17.7077 15.0451 17.7077 14.5534V4.49511C17.7077 4.18677 17.591 3.92011 17.3827 3.72011C17.166 3.52844 16.891 3.43677 16.5827 3.45344C16.566 3.45344 16.4993 3.45344 16.4827 3.45344C14.891 3.59511 12.3243 4.45344 10.9243 5.32844L10.791 5.42011C10.3327 5.70344 9.68268 5.70344 9.24102 5.42844L9.04102 5.31177C7.61602 4.43677 5.04935 3.58677 3.41602 3.45344C3.38268 3.45344 3.34935 3.45344 3.31602 3.45344Z" fill="#8B98A5"/>
<path id="Vector_2" d="M10 18.3037C9.65833 18.3037 9.375 18.0204 9.375 17.6787V5.17871C9.375 4.83704 9.65833 4.55371 10 4.55371C10.3417 4.55371 10.625 4.83704 10.625 5.17871V17.6787C10.625 18.0287 10.3417 18.3037 10 18.3037Z" fill="#8B98A5"/>
<g id="Group 348">
<path id="Vector_3" d="M6.45703 11.541L6.45703 9.66602C6.45703 9.32435 6.74036 9.04102 7.08203 9.04102C7.4237 9.04102 7.70703 9.32435 7.70703 9.66602L7.70703 11.541C7.70703 11.8827 7.4237 12.166 7.08203 12.166C6.74036 12.166 6.45703 11.8827 6.45703 11.541Z" fill="#8B98A5"/>
<path id="Vector_4" d="M3.95703 11.8535L3.95703 9.35352C3.95703 9.01185 4.24036 8.72852 4.58203 8.72852C4.9237 8.72852 5.20703 9.01185 5.20703 9.35352L5.20703 11.8535C5.20703 12.1952 4.9237 12.4785 4.58203 12.4785C4.24036 12.4785 3.95703 12.1952 3.95703 11.8535Z" fill="#8B98A5"/>
</g>
<path id="Vector_5" d="M18.2298 4.98021V14.8885C18.2298 15.6969 17.5715 16.4385 16.7632 16.5385L16.5048 16.5719C15.1382 16.7552 13.2132 17.3219 11.6632 17.9719C11.1215 18.1969 10.5215 17.7885 10.5215 17.1969V5.60521C10.5215 5.29687 10.6965 5.01354 10.9715 4.86354C12.4965 4.03854 14.8048 3.30521 16.3715 3.17188H16.4215C17.4215 3.17187 18.2298 3.98021 18.2298 4.98021Z" fill="#8B98A5"/>
<g id="next">
<path id="Vector_6" d="M12.4102 9.39091V11.8166C12.4102 12.3134 12.9501 12.6252 13.381 12.3768L14.4329 11.771L15.4848 11.1627C15.9157 10.9143 15.9157 10.2933 15.4848 10.0449L14.4329 9.43654L13.381 8.83074C12.9501 8.58234 12.4102 8.89157 12.4102 9.39091Z" fill="#1E2732"/>
</g>
</g>
</svg>
